<svg width="31" height="27" viewBox="0 0 31 27" fill="none" xmlns="http://www.w3.org/2000/svg">
<path d="M1.71971 22.7091C0.672915 20.8915 0.389903 18.7329 0.932768 16.7069C1.47563 14.6809 2.80003 12.953 4.61537 11.9023L22.2328 1.73088C23.5307 0.981536 25.0731 0.778473 26.5207 1.16636C27.9683 1.55425 29.2025 2.50131 29.9519 3.79921C30.7012 5.0971 30.9043 6.63952 30.5164 8.08713C30.1285 9.53475 29.1815 10.769 27.8836 11.5183L10.2662 21.6897C9.48742 22.1393 8.56197 22.2612 7.6934 22.0284C6.82483 21.7957 6.08429 21.2275 5.63469 20.4487C5.18508 19.67 5.06324 18.7446 5.29598 17.876C5.52871 17.0074 6.09695 16.2669 6.87568 15.8173L20.5781 7.90617C20.8377 7.7563 21.1462 7.71569 21.4357 7.79327C21.7252 7.87084 21.9721 8.06026 22.1219 8.31984C22.2718 8.57941 22.3124 8.8879 22.2348 9.17742C22.1573 9.46694 21.9678 9.71379 21.7083 9.86366L8.00584 17.7748C7.74626 17.9246 7.55685 18.1715 7.47927 18.461C7.40169 18.7505 7.44231 19.059 7.59218 19.3186C7.74204 19.5782 7.98889 19.7676 8.27841 19.8452C8.56794 19.9227 8.87642 19.8821 9.136 19.7322L26.7534 9.56083C27.5321 9.11123 28.1004 8.37069 28.3331 7.50212C28.5658 6.63355 28.444 5.7081 27.9944 4.92936C27.5448 4.15063 26.8043 3.58239 25.9357 3.34966C25.0671 3.11692 24.1417 3.23876 23.3629 3.68837L5.74553 13.8598C4.44763 14.6091 3.50057 15.8434 3.11268 17.291C2.72479 18.7386 2.92786 20.281 3.6772 21.5789C4.42654 22.8768 5.66077 23.8239 7.10839 24.2117C8.556 24.5996 10.0984 24.3966 11.3963 23.6472L25.0987 15.7361C25.3583 15.5863 25.6668 15.5456 25.9563 15.6232C26.2458 15.7008 26.4927 15.8902 26.6426 16.1498C26.7924 16.4094 26.833 16.7179 26.7555 17.0074C26.6779 17.2969 26.4885 17.5437 26.2289 17.6936L12.5265 25.6047C10.7089 26.6515 8.55028 26.9345 6.52428 26.3917C4.49829 25.8488 2.77038 24.5244 1.71971 22.7091Z" fill="#B0B0B0"/>
</svg>
