<svg width="41" height="41" viewBox="0 0 41 41" fill="none" xmlns="http://www.w3.org/2000/svg">
<path d="M12.7739 30.1704H28.5571C29.1161 30.1704 29.585 29.981 29.9638 29.6022C30.3425 29.2234 30.5313 28.7552 30.53 28.1975C30.53 27.6385 30.3406 27.1696 29.9618 26.7908C29.583 26.4121 29.1147 26.2233 28.5571 26.2246H12.7739C12.215 26.2246 11.7461 26.414 11.3673 26.7928C10.9885 27.1716 10.7997 27.6399 10.801 28.1975C10.801 28.7565 10.9904 29.2254 11.3692 29.6042C11.748 29.983 12.2163 30.1717 12.7739 30.1704ZM18.6926 16.6561L16.917 14.9298C16.5553 14.5681 16.1029 14.3873 15.5597 14.3873C15.0165 14.3873 14.5482 14.5846 14.155 14.9791C13.7933 15.3408 13.6124 15.8012 13.6124 16.3602C13.6124 16.9192 13.7933 17.3795 14.155 17.7412L19.2845 22.8707C19.6791 23.2653 20.1394 23.4626 20.6655 23.4626C21.1916 23.4626 21.652 23.2653 22.0465 22.8707L27.1761 17.7412C27.5378 17.3795 27.7265 16.927 27.7423 16.3838C27.7581 15.8406 27.5693 15.3724 27.1761 14.9791C26.8144 14.6174 26.3619 14.428 25.8187 14.4109C25.2755 14.3939 24.8073 14.5668 24.414 14.9298L22.6384 16.6561V10.4415C22.6384 9.8825 22.449 9.41361 22.0702 9.03482C21.6914 8.65602 21.2232 8.46728 20.6655 8.4686C20.1065 8.4686 19.6376 8.65799 19.2588 9.03679C18.88 9.41559 18.6913 9.88382 18.6926 10.4415V16.6561ZM20.6655 40.0349C17.9363 40.0349 15.3716 39.5167 12.9712 38.4802C10.5709 37.4438 8.4829 36.0385 6.7073 34.2642C4.93169 32.4886 3.52634 30.4006 2.49122 28.0002C1.45611 25.5999 0.9379 23.0351 0.936584 20.306C0.936584 17.5768 1.4548 15.012 2.49122 12.6117C3.52765 10.2113 4.93301 8.12334 6.7073 6.34774C8.4829 4.57213 10.5709 3.16678 12.9712 2.13167C15.3716 1.09655 17.9363 0.578342 20.6655 0.577026C23.3947 0.577026 25.9594 1.09524 28.3598 2.13167C30.7601 3.16809 32.8481 4.57345 34.6237 6.34774C36.3993 8.12334 37.8053 10.2113 38.8418 12.6117C39.8782 15.012 40.3958 17.5768 40.3944 20.306C40.3944 23.0351 39.8762 25.5999 38.8398 28.0002C37.8034 30.4006 36.398 32.4886 34.6237 34.2642C32.8481 36.0398 30.7601 37.4458 28.3598 38.4822C25.9594 39.5186 23.3947 40.0362 20.6655 40.0349ZM20.6655 36.0891C25.0716 36.0891 28.8037 34.5601 31.8617 31.5021C34.9197 28.4441 36.4487 24.7121 36.4487 20.306C36.4487 15.8998 34.9197 12.1678 31.8617 9.10979C28.8037 6.0518 25.0716 4.52281 20.6655 4.52281C16.2594 4.52281 12.5273 6.0518 9.46934 9.10979C6.41136 12.1678 4.88237 15.8998 4.88237 20.306C4.88237 24.7121 6.41136 28.4441 9.46934 31.5021C12.5273 34.5601 16.2594 36.0891 20.6655 36.0891Z" fill="black"/>
</svg>
