<svg width="41" height="40" viewBox="0 0 41 40" fill="none" xmlns="http://www.w3.org/2000/svg">
<path d="M10.7527 26.2113L22.5883 14.3757L26.6116 18.399L14.776 30.2346H10.7527V26.2113ZM20.518 36.0938C24.6619 36.0938 28.6361 34.4477 31.5663 31.5175C34.4965 28.5873 36.1426 24.6132 36.1426 20.4693C36.1426 16.3254 34.4965 12.3512 31.5663 9.42102C28.6361 6.49084 24.6619 4.84468 20.518 4.84468C16.3741 4.84468 12.4 6.49084 9.46978 9.42102C6.53961 12.3512 4.89345 16.3254 4.89345 20.4693C4.89345 24.6132 6.53961 28.5873 9.46978 31.5175C12.4 34.4477 16.3741 36.0938 20.518 36.0938ZM29.6975 15.2936L27.7444 17.2467L23.7406 13.2429L25.6937 11.2898C26.1038 10.8601 26.7874 10.8601 27.1975 11.2898L29.6975 13.7898C30.1272 14.1999 30.1272 14.8835 29.6975 15.2936ZM20.518 0.938538C23.0828 0.938538 25.6225 1.44371 27.9921 2.42523C30.3617 3.40674 32.5147 4.84536 34.3283 6.65896C36.1419 8.47255 37.5806 10.6256 38.5621 12.9952C39.5436 15.3648 40.0488 17.9045 40.0488 20.4693C40.0488 25.6491 37.9911 30.6169 34.3283 34.2796C30.6656 37.9423 25.6979 40 20.518 40C17.9532 40 15.4135 39.4948 13.0439 38.5133C10.6744 37.5318 8.52132 36.0932 6.70772 34.2796C3.045 30.6169 0.987305 25.6491 0.987305 20.4693C0.987305 15.2894 3.045 10.3217 6.70772 6.65896C10.3704 2.99623 15.3382 0.938538 20.518 0.938538Z" fill="#FF9F4B"/>
</svg>
