<svg width="27" height="28" viewBox="0 0 27 28" fill="none" xmlns="http://www.w3.org/2000/svg">
<path d="M13.5518 26.6645C6.6858 26.6645 1.12012 21.0988 1.12012 14.2328C1.12012 7.36671 6.6858 1.80103 13.5518 1.80103C20.4179 1.80103 25.9836 7.36671 25.9836 14.2328C25.9836 21.0988 20.4179 26.6645 13.5518 26.6645Z" stroke="#B0B0B0" stroke-width="1.86476" stroke-linecap="round" stroke-linejoin="round"/>
<path d="M19.1471 18.3766C19.1471 18.3766 17.2823 20.863 13.5528 20.863C9.82326 20.863 7.9585 18.3766 7.9585 18.3766" stroke="#B0B0B0" stroke-width="1.86476" stroke-linecap="round" stroke-linejoin="round"/>
<path d="M17.9027 11.5391C17.7378 11.5391 17.5797 11.4736 17.4631 11.3571C17.3466 11.2405 17.2811 11.0824 17.2811 10.9175C17.2811 10.7527 17.3466 10.5946 17.4631 10.478C17.5797 10.3614 17.7378 10.296 17.9027 10.296C18.0675 10.296 18.2256 10.3614 18.3422 10.478C18.4588 10.5946 18.5242 10.7527 18.5242 10.9175C18.5242 11.0824 18.4588 11.2405 18.3422 11.3571C18.2256 11.4736 18.0675 11.5391 17.9027 11.5391ZM9.20044 11.5391C9.03559 11.5391 8.87749 11.4736 8.76092 11.3571C8.64435 11.2405 8.57886 11.0824 8.57886 10.9175C8.57886 10.7527 8.64435 10.5946 8.76092 10.478C8.87749 10.3614 9.03559 10.296 9.20044 10.296C9.3653 10.296 9.5234 10.3614 9.63997 10.478C9.75654 10.5946 9.82203 10.7527 9.82203 10.9175C9.82203 11.0824 9.75654 11.2405 9.63997 11.3571C9.5234 11.4736 9.3653 11.5391 9.20044 11.5391Z" stroke="#B0B0B0" stroke-width="1.86476" stroke-linecap="round" stroke-linejoin="round"/>
</svg>
