<svg width="104" height="104" viewBox="0 0 104 104" fill="none" xmlns="http://www.w3.org/2000/svg">
<path d="M52.0272 103.013C79.9187 103.013 102.529 80.4025 102.529 52.5109C102.529 24.6194 79.9187 2.00886 52.0272 2.00886C24.1356 2.00886 1.52507 24.6194 1.52507 52.5109C1.52507 80.4025 24.1356 103.013 52.0272 103.013Z" fill="white"/>
<path d="M35.5088 17.5287L32.5078 9.27333L36.6354 7.77284C37.6107 7.41841 38.4464 7.35632 39.1397 7.58527C39.8343 7.81552 40.3207 8.31483 40.6001 9.08448C40.7747 9.56567 40.7967 10.0236 40.6648 10.4582C40.5328 10.8928 40.2573 11.2705 39.8369 11.59C40.3621 11.5706 40.7747 11.6625 41.0748 11.8669C41.3749 12.0712 41.6323 12.4451 41.8497 12.9884C41.9247 13.1746 42.0191 13.4191 42.1329 13.7192C42.3567 14.3233 42.5469 14.5975 42.7073 14.5432L42.7487 14.5277L42.8664 14.8523L40.3931 15.7513C40.1875 15.5069 39.9883 15.1654 39.7929 14.7269C39.5989 14.2884 39.4618 14.0077 39.3816 13.8848C39.1863 13.5704 38.9703 13.3738 38.7348 13.2936C38.4994 13.2134 38.2071 13.238 37.8565 13.3648L36.8721 13.7231L37.9341 16.6452L35.5088 17.5287ZM36.2331 11.9626L37.4801 11.5099C37.8578 11.3727 38.1178 11.202 38.2588 10.9963C38.3998 10.7906 38.4231 10.5565 38.3261 10.2913C38.2252 10.0132 38.0557 9.83861 37.8203 9.76617C37.5836 9.69503 37.2783 9.72736 36.9045 9.86318L35.6368 10.3237L36.2331 11.9626Z" fill="#002E2C"/>
<path d="M42.6284 10.3754C42.5469 9.69632 42.5701 9.07413 42.7008 8.50756C42.8314 7.94099 43.072 7.41323 43.4213 6.92169C43.746 6.47025 44.1508 6.10935 44.6333 5.839C45.1158 5.56866 45.6669 5.39662 46.2839 5.32159C46.8867 5.24915 47.4558 5.28279 47.9926 5.42507C48.5295 5.56607 49.0197 5.81055 49.4621 6.15851C49.9433 6.53881 50.3249 7.0006 50.6107 7.54388C50.8953 8.08716 51.0803 8.70547 51.1631 9.39881C51.2433 10.0598 51.2161 10.6755 51.0855 11.2473C50.9535 11.819 50.7142 12.3429 50.3663 12.8202C50.0351 13.2833 49.629 13.6519 49.1452 13.9262C48.6627 14.2004 48.1129 14.3737 47.4946 14.4488C46.8957 14.5212 46.3292 14.4863 45.7962 14.344C45.2633 14.2017 44.7769 13.9572 44.3371 13.6093C43.852 13.2264 43.4666 12.7659 43.1807 12.2278C42.8974 11.6897 42.7124 11.0726 42.6284 10.3754ZM45.2736 10.1012C45.3668 10.8773 45.5867 11.462 45.9307 11.8526C46.2748 12.2433 46.712 12.4076 47.2424 12.3429C47.7145 12.286 48.069 12.0143 48.3031 11.528C48.5372 11.0416 48.6097 10.4207 48.5178 9.66527C48.4247 8.89174 48.2048 8.31095 47.8594 7.91901C47.514 7.52836 47.0768 7.36408 46.5504 7.42876C46.0782 7.48567 45.7238 7.75731 45.4897 8.24109C45.2555 8.72617 45.1831 9.34577 45.2736 10.1012Z" fill="#002E2C"/>
<path d="M52.4307 9.34448C52.5071 8.66537 52.6752 8.06517 52.9326 7.54388C53.1901 7.02259 53.5458 6.56338 53.9998 6.16627C54.4202 5.80149 54.8962 5.54408 55.4292 5.39274C55.9621 5.24139 56.5364 5.20129 57.1547 5.27114C57.7575 5.3397 58.3047 5.50398 58.7936 5.76527C59.2826 6.02657 59.703 6.37711 60.0548 6.81821C60.4351 7.2994 60.7003 7.83622 60.8529 8.43124C61.0043 9.02627 61.0418 9.67045 60.9629 10.3638C60.8879 11.0248 60.721 11.6185 60.461 12.145C60.201 12.6714 59.8466 13.1255 59.399 13.5097C58.9696 13.8848 58.4897 14.1487 57.9567 14.3039C57.4238 14.4591 56.8482 14.5018 56.2311 14.4319C55.6309 14.3647 55.089 14.1991 54.6026 13.9391C54.1162 13.6778 53.6997 13.3273 53.3517 12.8875C52.9689 12.4024 52.6998 11.8656 52.5459 11.2757C52.3894 10.6859 52.3518 10.0417 52.4307 9.34448ZM55.0683 9.68726C54.9803 10.4647 55.0592 11.083 55.3037 11.5435C55.5482 12.004 55.9362 12.264 56.4679 12.3235C56.9413 12.3765 57.3475 12.1941 57.6877 11.775C58.0279 11.3559 58.2413 10.7687 58.3267 10.0132C58.4146 9.2397 58.3344 8.62269 58.0887 8.16219C57.8416 7.70169 57.4548 7.44169 56.9284 7.38219C56.4549 7.32915 56.0488 7.51025 55.7086 7.92806C55.3658 8.34587 55.1536 8.93184 55.0683 9.68726Z" fill="#002E2C"/>
<path d="M62.8346 8.54119L63.5512 6.4806L71.1171 9.11294L70.4005 11.1735L67.8432 10.2836L65.6739 16.5184L63.2253 15.666L65.3945 9.43115L62.8346 8.54119Z" fill="#002E2C"/>
<path d="M8.08587 54.1059L8.42219 56.7654L8.38985 56.7693C7.97592 56.821 7.681 56.9607 7.50249 57.1845C7.32398 57.4096 7.2606 57.7252 7.31234 58.1313C7.3602 58.5116 7.46109 58.7975 7.61373 58.989C7.76637 59.1804 7.95911 59.2606 8.19194 59.2308C8.52179 59.1895 8.76239 58.5828 8.91244 57.4096C8.93572 57.2181 8.95512 57.0732 8.96806 56.971C9.10518 55.9556 9.36259 55.1911 9.74289 54.6789C10.1219 54.1667 10.6509 53.8679 11.3288 53.7825C12.1734 53.6764 12.8771 53.9157 13.4372 54.503C13.9973 55.0903 14.3504 55.9582 14.4953 57.1082C14.6376 58.2322 14.5005 59.139 14.084 59.8272C13.6675 60.5153 13.0103 60.9293 12.1101 61.069L11.7957 58.5388C12.132 58.4884 12.3649 58.3642 12.4942 58.1663C12.6236 57.9671 12.6637 57.6721 12.6145 57.2802C12.5744 56.9607 12.4839 56.7175 12.3429 56.5494C12.2019 56.3812 12.0311 56.3101 11.8319 56.3346C11.5241 56.3734 11.29 57.0241 11.1334 58.2853L11.1257 58.3577C11.0481 58.9721 10.9808 59.4171 10.9213 59.6939C10.8618 59.9707 10.7945 60.1894 10.7195 60.3498C10.5048 60.8038 10.25 61.1427 9.95761 61.3665C9.66527 61.589 9.29274 61.73 8.83871 61.7869C7.89572 61.9059 7.1209 61.6717 6.51423 61.0858C5.90756 60.4985 5.52985 59.615 5.38109 58.4327C5.2194 57.1496 5.3604 56.1509 5.80667 55.4395C6.25552 54.7255 7.01483 54.2818 8.08587 54.1059Z" fill="#002E2C"/>
<path d="M6.901 65.3984L15.1874 62.325L16.4757 65.7994C16.878 66.8821 16.9298 67.807 16.6335 68.574C16.3373 69.3411 15.7125 69.9012 14.7605 70.2543C13.9624 70.5506 13.2108 70.535 12.5059 70.2078C11.8022 69.8805 11.2977 69.3088 10.995 68.4925L10.3961 66.8782L7.80517 67.8393L6.901 65.3984ZM14.1849 65.4385L12.3041 66.137L12.6792 67.1499C12.7969 67.4681 12.9664 67.6815 13.185 67.7889C13.4036 67.8962 13.6649 67.8949 13.9663 67.7824C14.278 67.6673 14.4837 67.4926 14.5833 67.2611C14.6829 67.0296 14.6712 66.7489 14.5484 66.4203L14.1849 65.4385Z" fill="#002E2C"/>
<path d="M14.4397 72.4973C15.0063 72.1144 15.5715 71.8531 16.1342 71.7109C16.6969 71.5686 17.2777 71.5414 17.874 71.6281C18.4238 71.7108 18.9296 71.9062 19.39 72.2127C19.8505 72.5193 20.2554 72.9306 20.6034 73.4468C20.9436 73.95 21.1725 74.4725 21.2915 75.0145C21.4105 75.5565 21.4157 76.1037 21.3084 76.6573C21.1894 77.2588 20.9526 77.8099 20.5982 78.3105C20.2438 78.8123 19.7781 79.2573 19.1999 79.648C18.6489 80.0205 18.0888 80.2779 17.5196 80.4215C16.9504 80.5651 16.3748 80.591 15.7927 80.4991C15.2288 80.4163 14.7165 80.2223 14.2521 79.917C13.7878 79.6117 13.3829 79.2017 13.0349 78.6869C12.6973 78.1863 12.4697 77.6663 12.3532 77.1282C12.2368 76.5888 12.2329 76.0442 12.3416 75.4944C12.4619 74.8878 12.696 74.3354 13.044 73.8348C13.3919 73.3368 13.8576 72.8906 14.4397 72.4973ZM15.891 74.7261C15.243 75.1633 14.8226 75.6251 14.6324 76.1089C14.441 76.5939 14.4953 77.057 14.7941 77.5007C15.0606 77.8952 15.4642 78.0854 16.0036 78.0724C16.5443 78.0595 17.129 77.8396 17.7589 77.414C18.4044 76.9781 18.8222 76.5176 19.0123 76.0312C19.2025 75.5449 19.1495 75.0818 18.8519 74.642C18.5855 74.2475 18.1832 74.056 17.6451 74.069C17.107 74.0819 16.521 74.3005 15.891 74.7261Z" fill="#002E2C"/>
<path d="M17.8857 84.6281L23.7648 78.1022L27.0271 81.0424C27.798 81.737 28.2456 82.4446 28.3685 83.1664C28.4913 83.8869 28.2792 84.5517 27.7307 85.1597C27.388 85.54 26.9934 85.7741 26.5485 85.8621C26.1022 85.9501 25.6404 85.8841 25.1605 85.6629C25.4244 86.1182 25.5369 86.5257 25.4981 86.8853C25.458 87.2462 25.2498 87.6498 24.872 88.096C24.7427 88.25 24.5719 88.4479 24.3598 88.6898C23.9316 89.1697 23.779 89.4685 23.9019 89.5836L23.9342 89.6133L23.7027 89.8695L21.7482 88.1077C21.8672 87.8114 22.0741 87.4751 22.3703 87.0974C22.6666 86.7197 22.8503 86.4662 22.9214 86.3394C23.1064 86.0199 23.1788 85.7366 23.1387 85.4908C23.0986 85.2451 22.9408 84.998 22.664 84.7484L21.8866 84.0473L19.8053 86.3562L17.8857 84.6281ZM23.14 82.6554L24.1257 83.5441C24.4245 83.8131 24.6974 83.9619 24.9445 83.9903C25.1915 84.0188 25.4102 83.9283 25.5977 83.72C25.7956 83.5001 25.8706 83.2686 25.8241 83.0267C25.7762 82.7848 25.6042 82.53 25.3093 82.2635L24.3068 81.3606L23.14 82.6554Z" fill="#002E2C"/>
<path d="M29.2791 85.7767L30.3217 83.8597L37.3585 87.6886L36.3159 89.6056L33.9371 88.3108L30.7822 94.1097L28.5043 92.8705L31.6592 87.0715L29.2791 85.7767Z" fill="#002E2C"/>
<path d="M36.7169 93.5806L39.304 94.2856L39.2949 94.3166C39.185 94.7189 39.2005 95.0449 39.3402 95.2958C39.4799 95.5468 39.7477 95.7253 40.1435 95.8326C40.5134 95.9335 40.8161 95.9503 41.0515 95.8805C41.287 95.8106 41.4344 95.6645 41.4952 95.4394C41.5832 95.1186 41.1136 94.6646 40.0879 94.0786C39.921 93.9842 39.7929 93.9105 39.7037 93.86C38.8176 93.3452 38.2097 92.8148 37.8811 92.269C37.5525 91.7231 37.4775 91.1203 37.6586 90.4606C37.8824 89.6392 38.3726 89.0817 39.1294 88.7868C39.8861 88.4931 40.8226 88.4983 41.9402 88.8036C43.0332 89.1011 43.8184 89.5745 44.2957 90.2213C44.773 90.8681 44.9037 91.6351 44.689 92.5199L42.2312 91.8434C42.314 91.5135 42.2882 91.2509 42.1536 91.0556C42.0191 90.8603 41.7617 90.7103 41.3814 90.6068C41.0709 90.5227 40.8109 90.5136 40.6014 90.5796C40.3918 90.6456 40.2612 90.7762 40.2082 90.969C40.1267 91.2691 40.6389 91.7321 41.7449 92.3595L41.8096 92.3944C42.3477 92.6997 42.7331 92.9325 42.966 93.0929C43.1988 93.2533 43.3747 93.3982 43.495 93.5302C43.8326 93.9027 44.0487 94.2662 44.1431 94.6219C44.2375 94.9776 44.2246 95.3747 44.1043 95.8158C43.8546 96.7329 43.3424 97.359 42.5689 97.6953C41.7953 98.0316 40.8329 98.0433 39.6843 97.7303C38.436 97.3901 37.5681 96.8778 37.0804 96.1935C36.5902 95.5106 36.4699 94.6387 36.7169 93.5806Z" fill="#002E2C"/>
<path d="M50.8048 99.3472L53.4345 90.3597L56.2467 90.1644L59.5775 98.7379L56.887 98.9242L56.4847 97.6436L54.0063 97.8156L53.7308 99.1428L50.8048 99.3472ZM54.3672 96.028L55.9259 95.9193L55.3231 94.0489C55.2442 93.816 55.1756 93.5405 55.1148 93.2223C55.054 92.9041 55.001 92.5393 54.9531 92.1293L54.8768 92.1344C54.8936 92.4772 54.891 92.8122 54.8691 93.1382C54.8484 93.4642 54.8044 93.785 54.7384 94.1006L54.3672 96.028Z" fill="#002E2C"/>
<path d="M67.8031 90.6236L65.3751 91.3648C65.2302 90.9767 65.0129 90.7025 64.7219 90.5408C64.4321 90.3791 64.1113 90.3519 63.7621 90.458C63.29 90.6016 62.9873 90.9185 62.854 91.4088C62.7208 91.899 62.7687 92.5173 62.9963 93.265C63.2343 94.045 63.55 94.6128 63.9419 94.9712C64.3338 95.3295 64.7633 95.4368 65.2277 95.2958C65.6015 95.182 65.8641 94.9517 66.0141 94.6051C66.1642 94.2597 66.1784 93.8522 66.0542 93.3866L68.477 92.6467C68.7564 93.7501 68.662 94.7137 68.1911 95.5403C67.7216 96.3656 66.939 96.9464 65.8447 97.2801C64.5822 97.6656 63.4762 97.5673 62.5242 96.9865C61.5734 96.4057 60.8801 95.4058 60.4468 93.9868C60.0419 92.6622 60.0807 91.5071 60.5619 90.524C61.0431 89.5396 61.9007 88.8592 63.1347 88.4828C64.2187 88.1516 65.1617 88.1698 65.9624 88.5358C66.7657 88.9032 67.3788 89.5978 67.8031 90.6236Z" fill="#002E2C"/>
<path d="M71.4741 95.1315L69.8908 85.9022L72.3305 84.4922L79.0892 90.7309L76.753 92.0801L75.8295 91.1061L73.6796 92.3492L74.0146 93.6634L71.4741 95.1315ZM73.2165 90.5861L74.5695 89.8048L73.2062 88.3884C73.0328 88.2137 72.8504 87.9964 72.6564 87.7377C72.4624 87.479 72.2541 87.175 72.0316 86.8258L71.9657 86.8646C72.1312 87.166 72.2761 87.4674 72.4003 87.7688C72.5245 88.0714 72.6254 88.378 72.7056 88.6911L73.2165 90.5861Z" fill="#002E2C"/>
<path d="M81.1084 89.1503L75.1206 82.724L77.8409 80.19C78.2691 79.7915 78.6558 79.4966 79.0012 79.3078C79.3466 79.1189 79.6958 79.0038 80.049 78.965C80.6983 78.9003 81.3464 79.0077 81.9944 79.2884C82.6425 79.5691 83.2388 79.9998 83.7821 80.5832C84.3254 81.1666 84.7031 81.7603 84.9178 82.3657C85.1325 82.971 85.1985 83.6346 85.1196 84.359C85.0717 84.7639 84.9385 85.1532 84.7199 85.5297C84.5013 85.9061 84.1805 86.2915 83.7575 86.6848L81.1084 89.1503ZM81.5727 85.8776L82.1742 85.3175C82.5726 84.9463 82.7408 84.4948 82.68 83.9619C82.6192 83.4303 82.3333 82.8909 81.825 82.345C81.3619 81.847 80.8716 81.5546 80.3542 81.4667C79.8368 81.3787 79.3931 81.5081 79.0219 81.8547L78.3803 82.4523L81.5727 85.8776Z" fill="#002E2C"/>
<path d="M88.9407 81.2287L81.64 76.3456L85.6228 70.3889L87.391 71.5711L84.8247 75.4091L85.7819 76.0494L88.0042 72.7263L89.6224 73.809L87.4001 77.132L88.5216 77.8823L91.1307 73.981L92.9675 75.2099L88.9407 81.2287Z" fill="#002E2C"/>
<path d="M94.6736 72.051L86.3627 69.2066L87.5269 65.8033L91.3156 66.1784C91.7024 66.2107 92.0542 66.2573 92.3686 66.3181C92.6842 66.3789 92.9791 66.4578 93.2559 66.5522L93.2753 66.4772C92.9312 66.344 92.6117 66.2056 92.3194 66.0633C92.0258 65.921 91.758 65.7748 91.5161 65.6261L88.2797 63.603L89.4465 60.1945L97.7574 63.039L96.9606 65.3687L92.7333 63.9225C92.3013 63.775 91.9572 63.6457 91.6998 63.537C91.4437 63.4284 91.2302 63.321 91.0621 63.2175L91.0194 63.2731C91.2096 63.3727 91.379 63.4633 91.5265 63.5448C91.6739 63.6263 91.8188 63.7104 91.9585 63.797L96.5544 66.5574L95.8714 68.5546L90.5486 67.9208C90.2717 67.8846 90.0531 67.8535 89.8927 67.8303C89.7323 67.807 89.5965 67.7837 89.4853 67.7604V67.8303C89.6832 67.851 89.916 67.8975 90.1851 67.9687C90.4541 68.0398 90.8047 68.1485 91.238 68.2972L95.4653 69.7447L94.6736 72.051Z" fill="#002E2C"/>
<path d="M89.4504 59.8673L89.6948 56.971L92.3867 56.1134C92.6622 56.0229 92.8795 55.9634 93.0399 55.9349C93.2003 55.9065 93.3516 55.8961 93.4939 55.9039L93.5004 55.8276C93.2495 55.8069 92.9196 55.693 92.5108 55.4861C92.4824 55.4731 92.463 55.4641 92.4526 55.4589L89.9315 54.1628L90.1695 51.3325L95.5351 54.7229L98.6771 54.9868L98.4546 57.6307L95.3126 57.3656L89.4504 59.8673Z" fill="#002E2C"/>
<path d="M52 104C44.9813 104 38.1708 102.625 31.7588 99.9124C25.5667 97.293 20.0058 93.5444 15.2301 88.7687C10.4543 83.9929 6.70567 78.432 4.08627 72.2399C1.37503 65.8292 0 59.0187 0 52C0 44.9813 1.37503 38.1708 4.08756 31.7588C6.70697 25.5667 10.4556 20.0058 15.2313 15.2301C20.0071 10.4543 25.568 6.70567 31.7601 4.08627C38.1708 1.37503 44.9813 0 52 0C59.0187 0 65.8292 1.37503 72.2412 4.08756C78.4333 6.70697 83.9942 10.4556 88.77 15.2313C93.5457 20.0071 97.2943 25.568 99.9137 31.7601C102.625 38.1708 104 44.98 104 52C104 59.0187 102.625 65.8292 99.9124 72.2412C97.293 78.4333 93.5444 83.9942 88.7687 88.77C83.9929 93.5444 78.432 97.2943 72.2399 99.9137C65.8292 102.625 59.02 104 52 104ZM52 2.86905C24.9096 2.86905 2.86905 24.9096 2.86905 52C2.86905 79.0905 24.9096 101.131 52 101.131C79.0905 101.131 101.131 79.0905 101.131 52C101.131 24.9096 79.0905 2.86905 52 2.86905Z" fill="#002E2C"/>
<path d="M52 87.5734C42.4977 87.5734 33.5646 83.8726 26.846 77.154C20.1274 70.4354 16.4266 61.501 16.4266 52C16.4266 42.4977 20.1274 33.5646 26.846 26.846C33.5646 20.1274 42.499 16.4266 52 16.4266C61.5023 16.4266 70.4354 20.1274 77.154 26.846C83.8726 33.5646 87.5734 42.499 87.5734 52C87.5734 61.5023 83.8726 70.4354 77.154 77.154C70.4354 83.8739 61.5023 87.5734 52 87.5734ZM52 19.2956C33.9669 19.2956 19.2956 33.9669 19.2956 52C19.2956 70.0331 33.9669 84.7044 52 84.7044C70.0331 84.7044 84.7044 70.0331 84.7044 52C84.7044 33.9669 70.0331 19.2956 52 19.2956Z" fill="#002E2C"/>
<path d="M93.578 48.7869H94.997C94.6542 44.1004 93.5586 39.5498 91.7257 35.2177C89.5538 30.0837 86.4455 25.4722 82.486 21.514C79.8989 18.927 77.035 16.7034 73.928 14.8679V16.5417C84.9308 23.3702 92.5354 35.175 93.578 48.7869Z" fill="#002E2C"/>
<path d="M10.4207 48.7869C11.4245 35.6756 18.5182 24.2421 28.8703 17.3152V15.6039C26.2225 17.2881 23.7622 19.2633 21.5127 21.514C17.5532 25.4735 14.4449 30.0837 12.273 35.2177C10.4414 39.5498 9.34448 44.1004 9.00169 48.7869H10.4207Z" fill="#002E2C"/>
<path d="M51.9922 39.7916C52.0259 34.1169 52.8628 29.9854 54.5909 26.0207C55.054 24.9574 55.574 24.5771 56.7835 24.7983C69.6218 27.1448 79.1008 38.2187 79.4048 51.2446C79.4281 52.2484 79.071 52.8266 78.2393 53.3168C72.4857 56.7098 66.3285 58.1805 59.6512 57.4134C58.619 57.2944 57.9981 56.8326 57.4432 56.0449C53.7243 50.7582 52.0246 44.8532 51.9922 39.7916Z" fill="#1B914B"/>
<path d="M47.6499 33.2063C47.6149 37.669 46.5128 42.2351 44.416 46.5749C44.0694 47.2915 43.5675 47.8025 42.9078 48.1983C37.7711 51.2821 32.2128 52.6545 26.2251 52.4075C24.8811 52.3518 24.5267 51.8719 24.6043 50.537C25.3015 38.5279 33.3511 28.5276 44.9153 25.3209C46.2205 24.9587 46.8388 25.1075 47.0561 26.5769C47.3614 28.6621 47.6382 30.7395 47.6499 33.2063Z" fill="#1B914B"/>
<path d="M49.2512 43.7731C49.7092 45.4961 50.0506 46.8893 50.4503 48.2643C51.436 51.6572 52.8641 54.8484 55.0191 57.667C55.7422 58.6138 55.8056 59.487 55.5391 60.6499C54.2663 66.2082 54.3141 71.7885 55.7525 77.317C56.0902 78.6144 55.9168 79.2327 54.459 79.2017C53.1124 79.1732 51.7646 79.2392 50.4167 79.2599C49.4375 79.2754 49.0689 78.943 49.3922 77.8784C52.1966 68.6762 50.4801 59.9707 46.3654 51.5628C45.9385 50.6909 45.9204 50.0325 46.4119 49.1853C47.3692 47.5347 48.1957 45.8066 49.2512 43.7731Z" fill="#6E3B2E"/>
<path d="M45.9514 58.2646C45.8699 59.0394 45.3913 59.6422 45.046 60.3045C42.6038 65 39.0401 68.6542 34.6524 71.5569C33.9798 72.0019 33.4598 72.1351 32.826 71.4806C30.68 69.2609 28.8147 66.8549 27.4707 64.0531C27.0167 63.1063 27.2056 62.7208 28.2482 62.5617C34.2101 61.6498 38.9806 58.6087 42.9362 54.1848C43.6334 53.4048 44.0124 53.4591 44.4057 54.3633C44.9645 55.6439 45.6332 56.8805 45.9514 58.2646Z" fill="#43A714"/>
<path d="M36.3897 74.3238C40.7346 71.4224 44.1599 67.9182 47.0264 63.4115C47.8633 66.754 47.5865 69.7214 47.276 72.6862C47.1079 74.2966 46.712 75.8644 46.2528 77.4127C46.0782 77.9987 45.8764 78.5575 45.0395 78.3298C42.0049 77.5007 39.2251 76.1528 36.3897 74.3238Z" fill="#43A714"/>
<path d="M62.237 60.8943C68.2442 60.8723 73.527 59.593 78.6494 56.8624C78.6649 59.0963 77.8965 60.8516 77.1333 62.5953C75.7299 65.7994 75.7092 65.8162 72.1869 65.3441C68.5934 64.8616 65.3894 63.4633 62.237 60.8943Z" fill="#43A714"/>
<path d="M57.7653 67.6116C57.8778 66.56 58.0511 64.9056 58.2309 63.2511C58.3293 62.3496 58.5983 61.836 59.4559 62.7376C59.4934 62.7764 59.5284 62.8217 59.5736 62.8476C61.7597 64.0932 62.9666 65.6726 62.7195 68.49C62.5164 70.7924 62.9937 73.1971 63.6884 75.4737C63.8966 76.1554 63.7375 76.5034 63.061 76.8526C59.4443 78.7218 59.1118 78.5899 58.3862 74.6316C57.9981 72.5154 57.808 70.3772 57.7653 67.6116Z" fill="#43A714"/>
<path d="M37.8863 54.6543C34.6783 57.6075 30.865 59.2438 26.4915 59.5749C25.242 59.6694 25.5046 58.4677 25.3338 57.7937C24.7944 55.6646 24.8656 55.6465 27.0387 55.6982C30.0772 55.7706 33.0653 55.3748 36.0107 54.6336C36.5759 54.4913 37.1502 54.3853 37.7207 54.2624C37.7763 54.393 37.8307 54.5237 37.8863 54.6543Z" fill="#43A714"/>
<path d="M73.6317 68.6025C71.8997 71.0589 69.8896 72.8013 67.6918 74.3587C67.0942 74.783 66.6712 74.6963 66.5445 73.9901C66.1642 71.8725 65.727 69.7589 65.7942 67.5871C65.811 67.0632 65.9533 66.732 66.5678 66.9791C68.7629 67.8665 71.077 68.3063 73.6317 68.6025Z" fill="#43A714"/>
</svg>
