<svg width="23" height="41" viewBox="0 0 23 41" fill="none" xmlns="http://www.w3.org/2000/svg">
<path d="M4.70603 1.20828L22.3915 18.8412C22.6014 19.0512 22.7504 19.2786 22.8386 19.5235C22.9267 19.7684 22.9701 20.0308 22.9687 20.3106C22.9687 20.5905 22.9253 20.8529 22.8386 21.0978C22.7518 21.3427 22.6028 21.5701 22.3915 21.7801L4.70602 39.4655C4.21622 39.9553 3.60396 40.2002 2.86926 40.2002C2.13455 40.2002 1.5048 39.9378 0.980015 39.413C0.455225 38.8882 0.192829 38.276 0.192829 37.5762C0.192829 36.8765 0.455225 36.2643 0.980015 35.7395L16.4088 20.3106L0.980018 4.88181C0.490215 4.39201 0.245311 3.78816 0.245311 3.07024C0.245311 2.35233 0.507705 1.73167 1.0325 1.20828C1.55729 0.683493 2.16954 0.421099 2.86926 0.421099C3.56898 0.421099 4.18124 0.683493 4.70603 1.20828Z" fill="white"/>
</svg>
