<svg width="24" height="41" viewBox="0 0 24 41" fill="none" xmlns="http://www.w3.org/2000/svg">
<path d="M19.1983 39.9326L1.51285 22.2996C1.30293 22.0897 1.15389 21.8623 1.06573 21.6174C0.977562 21.3725 0.93418 21.1101 0.93558 20.8302C0.93558 20.5503 0.978962 20.2879 1.06573 20.043C1.15249 19.7981 1.30153 19.5707 1.51285 19.3608L19.1983 1.67538C19.6881 1.18558 20.3003 0.940674 21.035 0.940674C21.7697 0.940674 22.3995 1.20307 22.9243 1.72786C23.4491 2.25265 23.7115 2.8649 23.7115 3.56462C23.7115 4.26434 23.4491 4.8766 22.9243 5.40139L7.49546 20.8302L22.9243 36.2591C23.4141 36.7489 23.659 37.3527 23.659 38.0706C23.659 38.7885 23.3966 39.4092 22.8718 39.9326C22.347 40.4574 21.7348 40.7198 21.035 40.7198C20.3353 40.7198 19.7231 40.4574 19.1983 39.9326Z" fill="white"/>
</svg>
