<svg width="22" height="22" viewBox="0 0 22 22" fill="none" xmlns="http://www.w3.org/2000/svg">
<path d="M20.9556 19.325L17.1688 15.5689C18.6387 13.7361 19.3505 11.4099 19.1579 9.06841C18.9653 6.72695 17.883 4.54826 16.1333 2.98034C14.3837 1.41242 12.0999 0.574431 9.75136 0.638695C7.40287 0.702958 5.16825 1.66458 3.50699 3.32584C1.84574 4.9871 0.88411 7.22172 0.819847 9.57021C0.755584 11.9187 1.59357 14.2026 3.16149 15.9522C4.72942 17.7018 6.9081 18.7842 9.24957 18.9768C11.591 19.1694 13.9173 18.4576 15.75 16.9877L19.5062 20.7438C19.6011 20.8395 19.714 20.9154 19.8384 20.9672C19.9627 21.019 20.0961 21.0457 20.2309 21.0457C20.3656 21.0457 20.499 21.019 20.6234 20.9672C20.7478 20.9154 20.8607 20.8395 20.9556 20.7438C21.1395 20.5535 21.2424 20.2991 21.2424 20.0344C21.2424 19.7697 21.1395 19.5154 20.9556 19.325ZM10.024 16.9877C8.61085 16.9877 7.22947 16.5686 6.0545 15.7835C4.87954 14.9984 3.96377 13.8826 3.42299 12.577C2.88222 11.2715 2.74072 9.83489 3.01641 8.44892C3.29209 7.06296 3.97257 5.78987 4.9718 4.79065C5.97102 3.79142 7.24411 3.11094 8.63008 2.83526C10.016 2.55957 11.4526 2.70106 12.7582 3.24184C14.0637 3.78262 15.1796 4.69839 15.9647 5.87335C16.7498 7.04831 17.1688 8.4297 17.1688 9.84281C17.1688 11.7377 16.4161 13.5551 15.0761 14.895C13.7362 16.2349 11.9189 16.9877 10.024 16.9877Z" fill="#BEBEBE"/>
</svg>
