<svg width="30" height="30" viewBox="0 0 30 30" fill="none" xmlns="http://www.w3.org/2000/svg">
<path d="M29.0502 29.2931C28.8976 29.4226 28.7103 29.5044 28.5116 29.5284C28.3129 29.5524 28.1115 29.5175 27.9325 29.428L1.36843 16.146C1.19895 16.061 1.05644 15.9306 0.956853 15.7693C0.857265 15.608 0.804519 15.4221 0.804519 15.2326C0.804519 15.043 0.857265 14.8572 0.956853 14.6958C1.05644 14.5345 1.19895 14.4041 1.36843 14.3192L27.9325 1.03716C28.1114 0.947445 28.3127 0.91226 28.5115 0.93597C28.7102 0.95968 28.8976 1.04124 29.0504 1.17052C29.2032 1.29981 29.3146 1.47112 29.3709 1.66319C29.4272 1.85526 29.4258 2.05963 29.3669 2.25093L25.3721 15.2326L29.3669 28.2142C29.4255 28.4053 29.4266 28.6094 29.3703 28.8012C29.314 28.9929 29.2027 29.164 29.0502 29.2931ZM23.5494 14.2109L26.7105 3.93264L4.11065 15.2326L26.7105 26.5325L23.5494 16.2543L4.11065 16.2543C3.83968 16.2543 3.57981 16.1466 3.38821 15.955C3.1966 15.7634 3.08896 15.5035 3.08896 15.2326C3.08896 14.9616 3.1966 14.7017 3.38821 14.5101C3.57981 14.3185 3.83968 14.2109 4.11065 14.2109L23.5494 14.2109Z" fill="white"/>
</svg>
