<svg width="37" height="37" viewBox="0 0 37 37" fill="none" xmlns="http://www.w3.org/2000/svg">
<path d="M23.2175 26.9175L16.65 20.35V11.1H20.35V18.8237L25.8075 24.2812L23.2175 26.9175ZM16.65 7.4V3.7H20.35V7.4H16.65ZM29.6 20.35V16.65H33.3V20.35H29.6ZM16.65 33.3V29.6H20.35V33.3H16.65ZM3.7 20.35V16.65H7.4V20.35H3.7ZM18.5 37C15.9408 37 13.5358 36.5141 11.285 35.5422C9.03417 34.5703 7.07625 33.2525 5.41125 31.5887C3.74625 29.9237 2.42843 27.9658 1.4578 25.715C0.487167 23.4642 0.00123333 21.0592 0 18.5C0 15.9408 0.485933 13.5358 1.4578 11.285C2.42967 9.03417 3.74748 7.07625 5.41125 5.41125C7.07625 3.74625 9.03417 2.42843 11.285 1.4578C13.5358 0.487167 15.9408 0.00123333 18.5 0C21.0592 0 23.4642 0.485933 25.715 1.4578C27.9658 2.42967 29.9237 3.74748 31.5887 5.41125C33.2537 7.07625 34.5722 9.03417 35.544 11.285C36.5159 13.5358 37.0012 15.9408 37 18.5C37 21.0592 36.5141 23.4642 35.5422 25.715C34.5703 27.9658 33.2525 29.9237 31.5887 31.5887C29.9237 33.2537 27.9658 34.5722 25.715 35.544C23.4642 36.5159 21.0592 37.0012 18.5 37ZM18.5 33.3C22.6317 33.3 26.1312 31.8662 28.9987 28.9987C31.8662 26.1312 33.3 22.6317 33.3 18.5C33.3 14.3683 31.8662 10.8687 28.9987 8.00125C26.1312 5.13375 22.6317 3.7 18.5 3.7C14.3683 3.7 10.8687 5.13375 8.00125 8.00125C5.13375 10.8687 3.7 14.3683 3.7 18.5C3.7 22.6317 5.13375 26.1312 8.00125 28.9987C10.8687 31.8662 14.3683 33.3 18.5 33.3Z" fill="#0B3A2D"/>
</svg>
