<svg width="183" height="183" viewBox="0 0 183 183" fill="none" xmlns="http://www.w3.org/2000/svg">
<path d="M92.0033 180.361C140.837 180.361 180.425 140.773 180.425 91.9392C180.425 43.1051 140.837 3.51722 92.0033 3.51722C43.1692 3.51722 3.58132 43.1051 3.58132 91.9392C3.58132 140.773 43.1692 180.361 92.0033 180.361Z" fill="white"/>
<path d="M63.0819 30.6902L57.8276 16.2363L65.0545 13.6091C66.7622 12.9886 68.2252 12.8799 69.4392 13.2807C70.6553 13.6839 71.5069 14.5581 71.9961 15.9056C72.3019 16.7481 72.3404 17.5499 72.1093 18.3108C71.8783 19.0718 71.3959 19.7331 70.6599 20.2925C71.5794 20.2585 72.3019 20.4193 72.8273 20.7772C73.3527 21.135 73.8034 21.7895 74.1839 22.7408C74.3153 23.0669 74.4806 23.4949 74.6799 24.0204C75.0717 25.078 75.4046 25.5582 75.6855 25.463L75.7579 25.4359L75.964 26.0043L71.6337 27.5784C71.2736 27.1503 70.9249 26.5524 70.5829 25.7846C70.2432 25.0169 70.0031 24.5254 69.8627 24.3103C69.5207 23.7599 69.1425 23.4157 68.7303 23.2752C68.3181 23.1348 67.8062 23.1779 67.1925 23.3998L65.469 24.0272L67.3284 29.1433L63.0819 30.6902ZM64.3502 20.9448L66.5334 20.1521C67.1948 19.912 67.65 19.6131 67.8968 19.253C68.1437 18.8929 68.1845 18.483 68.0146 18.0187C67.838 17.5317 67.5413 17.226 67.1291 17.0992C66.7146 16.9746 66.1801 17.0312 65.5256 17.269L63.3061 18.0753L64.3502 20.9448Z" fill="#002E2C"/>
<path d="M75.5473 18.1659C75.4046 16.9769 75.4454 15.8875 75.6741 14.8955C75.9029 13.9035 76.3241 12.9795 76.9356 12.1189C77.5041 11.3285 78.213 10.6966 79.0577 10.2233C79.9025 9.74992 80.8673 9.44871 81.9476 9.31735C83.003 9.19052 83.9995 9.2494 84.9394 9.49853C85.8793 9.74539 86.7376 10.1734 87.5122 10.7827C88.3547 11.4485 89.0228 12.257 89.5233 13.2083C90.0216 14.1595 90.3454 15.242 90.4904 16.456C90.6308 17.6133 90.5832 18.6913 90.3545 19.6924C90.1235 20.6934 89.7045 21.6106 89.0953 22.4463C88.5155 23.2571 87.8043 23.9026 86.9573 24.3827C86.1125 24.8629 85.15 25.1663 84.0674 25.2977C83.0188 25.4245 82.0269 25.3634 81.0938 25.1143C80.1607 24.8651 79.3091 24.4371 78.5391 23.8279C77.6898 23.1575 77.0149 22.3512 76.5144 21.4091C76.0184 20.4669 75.6945 19.3866 75.5473 18.1659ZM80.1788 17.6857C80.3419 19.0446 80.7269 20.0683 81.3293 20.7523C81.9317 21.4362 82.6972 21.7239 83.6258 21.6106C84.4525 21.511 85.073 21.0354 85.4829 20.1838C85.8929 19.3323 86.0197 18.2452 85.8589 16.9225C85.6958 15.5682 85.3108 14.5513 84.7061 13.865C84.1014 13.1811 83.3359 12.8935 82.4141 13.0067C81.5875 13.1063 80.9669 13.5819 80.557 14.429C80.1471 15.2783 80.0203 16.3631 80.1788 17.6857Z" fill="#002E2C"/>
<path d="M92.7099 16.3608C92.8435 15.1718 93.1379 14.121 93.5886 13.2083C94.0393 12.2955 94.6621 11.4915 95.4571 10.7963C96.1931 10.1576 97.0266 9.70689 97.9597 9.44191C98.8928 9.17693 99.8983 9.10672 100.981 9.22902C102.036 9.34905 102.994 9.63668 103.85 10.0942C104.706 10.5517 105.443 11.1654 106.059 11.9377C106.724 12.7802 107.189 13.7201 107.456 14.7619C107.721 15.8037 107.787 16.9316 107.648 18.1455C107.517 19.3028 107.225 20.3423 106.77 21.2641C106.314 22.1859 105.694 22.9808 104.91 23.6535C104.158 24.3103 103.318 24.7723 102.385 25.0441C101.452 25.3158 100.444 25.3906 99.3638 25.2683C98.313 25.1505 97.364 24.8606 96.5125 24.4054C95.6609 23.9479 94.9316 23.3341 94.3224 22.5641C93.652 21.7148 93.181 20.7749 92.9114 19.7422C92.6374 18.7094 92.5717 17.5816 92.7099 16.3608ZM97.3278 16.961C97.1738 18.3222 97.3119 19.4047 97.74 20.211C98.168 21.0173 98.8475 21.4725 99.7783 21.5767C100.607 21.6695 101.318 21.3502 101.914 20.6164C102.51 19.8826 102.883 18.8544 103.033 17.5317C103.187 16.1774 103.046 15.0971 102.616 14.2908C102.184 13.4846 101.506 13.0293 100.585 12.9252C99.7556 12.8323 99.0445 13.1494 98.4489 13.8809C97.8487 14.6124 97.4773 15.6384 97.3278 16.961Z" fill="#002E2C"/>
<path d="M110.926 14.9544L112.18 11.3466L125.427 15.9554L124.172 19.5633L119.695 18.0051L115.897 28.9214L111.61 27.4289L115.408 16.5126L110.926 14.9544Z" fill="#002E2C"/>
<path d="M15.0683 94.7317L15.6572 99.3881L15.6006 99.3949C14.8758 99.4854 14.3595 99.73 14.0469 100.122C13.7344 100.516 13.6234 101.069 13.714 101.78C13.7978 102.446 13.9744 102.946 14.2417 103.281C14.5089 103.616 14.8464 103.757 15.2541 103.705C15.8316 103.632 16.2528 102.57 16.5155 100.516C16.5563 100.181 16.5903 99.9271 16.6129 99.7482C16.853 97.9703 17.3037 96.6318 17.9695 95.735C18.6331 94.8381 19.5594 94.3149 20.7462 94.1655C22.2251 93.9797 23.4571 94.3987 24.4378 95.4269C25.4184 96.4552 26.0367 97.9748 26.2904 99.9882C26.5395 101.956 26.2994 103.544 25.5702 104.749C24.8409 105.954 23.6904 106.678 22.1141 106.923L21.5638 102.493C22.1526 102.405 22.5603 102.187 22.7867 101.841C23.0132 101.492 23.0834 100.976 22.9974 100.289C22.9272 99.73 22.7686 99.3043 22.5218 99.0098C22.2749 98.7154 21.9759 98.5909 21.6272 98.6339C21.0882 98.7018 20.6782 99.841 20.4042 102.049L20.3906 102.176C20.2547 103.252 20.1369 104.031 20.0328 104.516C19.9286 105 19.8108 105.383 19.6795 105.664C19.3035 106.459 18.8573 107.052 18.3455 107.444C17.8336 107.833 17.1814 108.08 16.3864 108.18C14.7354 108.388 13.3788 107.978 12.3166 106.952C11.2544 105.924 10.5931 104.377 10.3327 102.307C10.0496 100.061 10.2964 98.3123 11.0778 97.0667C11.8637 95.8165 13.1931 95.0397 15.0683 94.7317Z" fill="#002E2C"/>
<path d="M12.9938 114.503L27.502 109.122L29.7578 115.205C30.4621 117.101 30.5527 118.72 30.0341 120.063C29.5154 121.406 28.4215 122.387 26.7547 123.005C25.3573 123.524 24.0414 123.497 22.8071 122.924C21.5751 122.351 20.6918 121.35 20.1619 119.921L19.1133 117.094L14.5769 118.777L12.9938 114.503ZM25.7468 114.573L22.4538 115.796L23.1106 117.57C23.3167 118.127 23.6134 118.501 23.9961 118.689C24.3789 118.877 24.8364 118.874 25.3641 118.677C25.9099 118.476 26.27 118.17 26.4444 117.765C26.6188 117.359 26.5984 116.868 26.3832 116.292L25.7468 114.573Z" fill="#002E2C"/>
<path d="M26.193 126.932C27.185 126.262 28.1747 125.805 29.1599 125.555C30.145 125.306 31.1619 125.259 32.206 125.41C33.1685 125.555 34.0541 125.897 34.8603 126.434C35.6666 126.971 36.3755 127.691 36.9847 128.595C37.5804 129.476 37.9812 130.391 38.1896 131.34C38.3979 132.289 38.407 133.247 38.219 134.216C38.0107 135.269 37.5962 136.234 36.9757 137.11C36.3551 137.989 35.5398 138.768 34.5274 139.452C33.5626 140.104 32.582 140.555 31.5855 140.807C30.5889 141.058 29.5811 141.103 28.562 140.942C27.5745 140.797 26.6777 140.458 25.8646 139.923C25.0515 139.389 24.3427 138.671 23.7334 137.769C23.1423 136.893 22.7437 135.983 22.5399 135.04C22.3361 134.096 22.3293 133.143 22.5195 132.18C22.7301 131.118 23.14 130.151 23.7493 129.274C24.3585 128.402 25.1738 127.621 26.193 126.932ZM28.7341 130.835C27.5994 131.6 26.8634 132.409 26.5304 133.256C26.1953 134.105 26.2904 134.916 26.8135 135.693C27.2801 136.383 27.9867 136.716 28.9311 136.694C29.8778 136.671 30.9015 136.286 32.0044 135.541C33.1346 134.778 33.8661 133.971 34.199 133.12C34.5319 132.268 34.4391 131.457 33.9182 130.687C33.4516 129.997 32.7473 129.662 31.8051 129.684C30.863 129.707 29.837 130.09 28.7341 130.835Z" fill="#002E2C"/>
<path d="M32.2264 148.172L42.5199 136.746L48.2317 141.894C49.5815 143.11 50.3651 144.349 50.5802 145.612C50.7954 146.874 50.424 148.038 49.4637 149.102C48.8635 149.768 48.1728 150.178 47.3937 150.332C46.6123 150.486 45.8038 150.371 44.9636 149.983C45.4256 150.781 45.6226 151.494 45.5547 152.124C45.4845 152.756 45.1198 153.462 44.4585 154.244C44.232 154.513 43.9331 154.86 43.5617 155.283C42.812 156.123 42.5448 156.646 42.7599 156.848L42.8165 156.9L42.4112 157.349L38.9891 154.264C39.1974 153.745 39.5598 153.156 40.0784 152.495C40.5971 151.834 40.9187 151.39 41.0432 151.168C41.3671 150.609 41.4939 150.113 41.4237 149.682C41.3535 149.252 41.0772 148.819 40.5925 148.382L39.2314 147.155L35.5873 151.197L32.2264 148.172ZM41.426 144.718L43.1517 146.274C43.6749 146.745 44.1528 147.005 44.5854 147.055C45.0179 147.105 45.4007 146.946 45.7291 146.582C46.0756 146.197 46.2069 145.791 46.1254 145.368C46.0416 144.944 45.7404 144.498 45.224 144.032L43.4688 142.451L41.426 144.718Z" fill="#002E2C"/>
<path d="M52.1747 150.183L54.0001 146.826L66.3205 153.53L64.4951 156.887L60.3302 154.62L54.8064 164.773L50.8181 162.603L56.3419 152.45L52.1747 150.183Z" fill="#002E2C"/>
<path d="M65.1972 163.846L69.7268 165.081L69.7109 165.135C69.5184 165.839 69.5456 166.41 69.7902 166.849C70.0348 167.289 70.5036 167.601 71.1966 167.789C71.8444 167.966 72.3743 167.995 72.7865 167.873C73.1987 167.751 73.4569 167.495 73.5633 167.101C73.7174 166.539 72.8952 165.744 71.0993 164.718C70.8071 164.553 70.5829 164.424 70.4266 164.335C68.8752 163.434 67.8108 162.506 67.2355 161.55C66.6603 160.594 66.5289 159.539 66.846 158.384C67.2378 156.945 68.0961 155.969 69.421 155.453C70.7459 154.939 72.3857 154.948 74.3424 155.482C76.2562 156.003 77.6309 156.832 78.4666 157.965C79.3023 159.097 79.5311 160.44 79.1551 161.989L74.852 160.805C74.997 160.227 74.9517 159.767 74.7161 159.425C74.4806 159.083 74.0299 158.821 73.364 158.64C72.8205 158.492 72.3653 158.476 71.9984 158.592C71.6315 158.707 71.4027 158.936 71.3099 159.274C71.1672 159.799 72.0641 160.61 74.0005 161.708L74.1137 161.769C75.0558 162.304 75.7308 162.712 76.1384 162.992C76.5461 163.273 76.8541 163.527 77.0647 163.758C77.6558 164.41 78.034 165.047 78.1994 165.669C78.3647 166.292 78.342 166.988 78.1314 167.76C77.6943 169.366 76.7975 170.462 75.4431 171.051C74.0888 171.639 72.4038 171.66 70.3926 171.112C68.2071 170.516 66.6874 169.619 65.8336 168.421C64.9753 167.225 64.7646 165.699 65.1972 163.846Z" fill="#002E2C"/>
<path d="M89.863 173.943L94.4674 158.207L99.391 157.865L105.223 172.876L100.512 173.202L99.8077 170.96L95.4684 171.261L94.986 173.585L89.863 173.943ZM96.1003 168.131L98.8293 167.941L97.774 164.666C97.6358 164.258 97.5158 163.776 97.4093 163.219C97.3029 162.662 97.21 162.023 97.1262 161.305L96.9926 161.314C97.022 161.914 97.0175 162.501 96.979 163.072C96.9428 163.642 96.8658 164.204 96.7503 164.757L96.1003 168.131Z" fill="#002E2C"/>
<path d="M119.625 158.669L115.374 159.967C115.12 159.287 114.74 158.807 114.23 158.524C113.723 158.241 113.161 158.193 112.549 158.379C111.723 158.63 111.193 159.185 110.96 160.044C110.726 160.902 110.81 161.985 111.209 163.294C111.625 164.659 112.178 165.654 112.864 166.281C113.55 166.908 114.302 167.096 115.115 166.849C115.77 166.65 116.23 166.247 116.492 165.64C116.755 165.035 116.78 164.322 116.563 163.507L120.805 162.211C121.294 164.143 121.128 165.83 120.304 167.277C119.482 168.722 118.112 169.739 116.196 170.324C113.985 170.998 112.049 170.826 110.382 169.809C108.717 168.793 107.503 167.042 106.745 164.557C106.036 162.238 106.104 160.216 106.946 158.495C107.789 156.771 109.29 155.58 111.451 154.921C113.349 154.341 115 154.373 116.402 155.014C117.808 155.657 118.882 156.873 119.625 158.669Z" fill="#002E2C"/>
<path d="M126.052 166.562L123.28 150.402L127.551 147.934L139.385 158.857L135.295 161.219L133.678 159.514L129.914 161.69L130.5 163.991L126.052 166.562ZM129.103 158.603L131.472 157.235L129.085 154.755C128.781 154.45 128.462 154.069 128.122 153.616C127.782 153.163 127.418 152.631 127.028 152.02L126.913 152.087C127.203 152.615 127.456 153.143 127.674 153.671C127.891 154.201 128.068 154.737 128.208 155.285L129.103 158.603Z" fill="#002E2C"/>
<path d="M142.92 156.089L132.437 144.838L137.199 140.401C137.949 139.704 138.626 139.187 139.231 138.857C139.836 138.526 140.447 138.324 141.065 138.256C142.202 138.143 143.337 138.331 144.472 138.823C145.606 139.314 146.65 140.068 147.602 141.09C148.553 142.111 149.214 143.151 149.59 144.211C149.966 145.27 150.082 146.432 149.943 147.701C149.86 148.409 149.626 149.091 149.244 149.75C148.861 150.409 148.299 151.084 147.559 151.773L142.92 156.089ZM143.733 150.359L144.786 149.379C145.484 148.729 145.778 147.938 145.672 147.005C145.566 146.074 145.065 145.13 144.175 144.174C143.364 143.302 142.506 142.79 141.6 142.636C140.694 142.482 139.917 142.709 139.267 143.316L138.144 144.362L143.733 150.359Z" fill="#002E2C"/>
<path d="M156.634 142.22L143.851 133.67L150.824 123.241L153.92 125.311L149.427 132.03L151.103 133.152L154.994 127.333L157.827 129.229L153.936 135.047L155.9 136.361L160.468 129.53L163.684 131.682L156.634 142.22Z" fill="#002E2C"/>
<path d="M166.671 126.151L152.12 121.171L154.158 115.212L160.792 115.869C161.469 115.926 162.085 116.007 162.635 116.114C163.188 116.22 163.704 116.358 164.189 116.523L164.223 116.392C163.62 116.159 163.061 115.917 162.549 115.667C162.035 115.418 161.566 115.162 161.143 114.902L155.476 111.36L157.519 105.392L172.07 110.372L170.675 114.451L163.274 111.919C162.518 111.661 161.915 111.434 161.464 111.244C161.016 111.054 160.642 110.866 160.348 110.685L160.273 110.782C160.606 110.957 160.903 111.115 161.161 111.258C161.419 111.401 161.673 111.548 161.917 111.699L169.964 116.533L168.768 120.029L159.449 118.92C158.964 118.856 158.581 118.802 158.3 118.761C158.02 118.72 157.782 118.68 157.587 118.639V118.761C157.934 118.797 158.341 118.879 158.812 119.003C159.283 119.128 159.897 119.318 160.656 119.579L168.057 122.113L166.671 126.151Z" fill="#002E2C"/>
<path d="M157.526 104.819L157.954 99.7482L162.667 98.2466C163.149 98.0881 163.53 97.9839 163.811 97.9341C164.092 97.8842 164.357 97.8661 164.606 97.8797L164.617 97.7461C164.178 97.7099 163.6 97.5106 162.884 97.1482C162.835 97.1255 162.801 97.1097 162.782 97.1006L158.368 94.8313L158.785 89.8759L168.179 95.812L173.681 96.274L173.291 100.903L167.79 100.439L157.526 104.819Z" fill="#002E2C"/>
<path d="M91.9557 182.089C79.667 182.089 67.7428 179.682 56.5163 174.932C45.6747 170.346 35.9384 163.783 27.5768 155.421C19.2152 147.06 12.6518 137.323 8.06561 126.482C3.31861 115.257 0.911133 103.333 0.911133 91.0446C0.911133 78.7558 3.31861 66.8317 8.06787 55.6051C12.6541 44.7636 19.2174 35.0272 27.579 26.6656C35.9406 18.304 45.677 11.7407 56.5185 7.15447C67.7428 2.40747 79.667 0 91.9557 0C104.244 0 116.169 2.40747 127.395 7.15674C138.237 11.7429 147.973 18.3063 156.335 26.6679C164.696 35.0295 171.26 44.7658 175.846 55.6074C180.593 66.8317 183 78.7536 183 91.0446C183 103.333 180.593 115.257 175.844 126.484C171.257 137.326 164.694 147.062 156.332 155.424C147.971 163.783 138.234 170.348 127.393 174.935C116.169 179.682 104.247 182.089 91.9557 182.089ZM91.9557 5.0233C44.5242 5.0233 5.93444 43.6131 5.93444 91.0446C5.93444 138.476 44.5242 177.066 91.9557 177.066C139.387 177.066 177.977 138.476 177.977 91.0446C177.977 43.6131 139.387 5.0233 91.9557 5.0233Z" fill="#002E2C"/>
<path d="M91.9557 153.329C75.3186 153.329 59.6779 146.849 47.9146 135.086C36.1513 123.322 29.6717 107.679 29.6717 91.0446C29.6717 74.4074 36.1513 58.7668 47.9146 47.0035C59.6779 35.2401 75.3208 28.7606 91.9557 28.7606C108.593 28.7606 124.234 35.2401 135.997 47.0035C147.76 58.7668 154.24 74.4097 154.24 91.0446C154.24 107.682 147.76 123.322 135.997 135.086C124.234 146.851 108.593 153.329 91.9557 153.329ZM91.9557 33.7839C60.3823 33.7839 34.695 59.4711 34.695 91.0446C34.695 122.618 60.3823 148.305 91.9557 148.305C123.529 148.305 149.216 122.618 149.216 91.0446C149.216 59.4711 123.529 33.7839 91.9557 33.7839Z" fill="#002E2C"/>
<path d="M164.753 85.4188H167.237C166.637 77.2135 164.719 69.246 161.51 61.6612C157.707 52.6722 152.265 44.5983 145.332 37.668C140.803 33.1384 135.788 29.2452 130.348 26.0315V28.9621C149.613 40.918 162.927 61.5864 164.753 85.4188Z" fill="#002E2C"/>
<path d="M19.1563 85.4188C20.9138 62.4629 33.3339 42.4444 51.459 30.3165V27.3202C46.823 30.2689 42.5153 33.7273 38.5769 37.668C31.6443 44.6005 26.202 52.6722 22.3995 61.6612C19.1925 69.246 17.272 77.2135 16.6718 85.4188H19.1563Z" fill="#002E2C"/>
<path d="M91.9421 69.6695C92.001 59.7338 93.4663 52.5001 96.4921 45.5585C97.3029 43.6969 98.2133 43.031 100.331 43.4183C122.809 47.5266 139.405 66.9155 139.938 89.7219C139.978 91.4794 139.353 92.4918 137.897 93.3501C127.823 99.2907 117.043 101.866 105.352 100.523C103.545 100.314 102.458 99.5058 101.486 98.1266C94.9747 88.8704 91.9987 78.5316 91.9421 69.6695Z" fill="#1B914B"/>
<path d="M84.3392 58.1394C84.2781 65.953 82.3485 73.9477 78.6772 81.546C78.0703 82.8007 77.1915 83.6953 76.0365 84.3884C67.043 89.7876 57.3112 92.1906 46.8275 91.758C44.4744 91.6606 43.8538 90.8204 43.9897 88.4831C45.2104 67.4568 59.3042 49.9477 79.5515 44.3333C81.8366 43.6991 82.9192 43.9596 83.2997 46.5324C83.8342 50.1832 84.3188 53.8205 84.3392 58.1394Z" fill="#1B914B"/>
<path d="M87.143 76.6405C87.9448 79.6572 88.5427 82.0964 89.2425 84.5039C90.9683 90.4444 93.4686 96.0316 97.2417 100.967C98.5077 102.624 98.6187 104.153 98.1522 106.189C95.9236 115.921 96.0074 125.691 98.5259 135.371C99.117 137.643 98.8135 138.725 96.2611 138.671C93.9034 138.621 91.5435 138.737 89.1836 138.773C87.4692 138.8 86.8237 138.218 87.3899 136.354C92.3 120.242 89.2946 105 82.0903 90.2791C81.3429 88.7526 81.3112 87.5998 82.1718 86.1164C83.8478 83.2265 85.295 80.2008 87.143 76.6405Z" fill="#6E3B2E"/>
<path d="M81.3655 102.013C81.2229 103.37 80.3849 104.425 79.7802 105.585C75.5043 113.806 69.2648 120.204 61.5826 125.286C60.4049 126.065 59.4945 126.298 58.3847 125.152C54.6274 121.266 51.3616 117.053 49.0085 112.148C48.2135 110.49 48.5442 109.815 50.3696 109.537C60.808 107.94 69.1606 102.615 76.0863 94.8698C77.307 93.5041 77.9706 93.5993 78.6591 95.1823C79.6375 97.4245 80.8084 99.5896 81.3655 102.013Z" fill="#43A714"/>
<path d="M64.6242 130.13C72.2317 125.05 78.2288 118.915 83.2476 111.025C84.7129 116.877 84.2282 122.072 83.6847 127.263C83.3903 130.083 82.6972 132.828 81.8932 135.539C81.5875 136.565 81.2342 137.543 79.7689 137.144C74.4557 135.693 69.5886 133.333 64.6242 130.13Z" fill="#43A714"/>
<path d="M109.879 106.617C120.397 106.579 129.646 104.339 138.615 99.5579C138.642 103.469 137.297 106.543 135.961 109.595C133.503 115.205 133.467 115.235 127.3 114.408C121.008 113.563 115.399 111.115 109.879 106.617Z" fill="#43A714"/>
<path d="M102.05 118.378C102.247 116.537 102.55 113.64 102.865 110.744C103.037 109.165 103.508 108.266 105.01 109.845C105.076 109.913 105.137 109.992 105.216 110.037C109.044 112.218 111.157 114.983 110.724 119.916C110.368 123.947 111.204 128.158 112.42 132.144C112.785 133.337 112.506 133.947 111.322 134.558C104.99 137.831 104.408 137.6 103.137 130.669C102.458 126.964 102.125 123.22 102.05 118.378Z" fill="#43A714"/>
<path d="M67.2446 95.6919C61.6279 100.862 54.9513 103.727 47.294 104.307C45.1063 104.473 45.566 102.369 45.2671 101.189C44.3226 97.4607 44.4472 97.429 48.252 97.5196C53.572 97.6464 58.8037 96.9534 63.9606 95.6557C64.9503 95.4066 65.9559 95.2208 66.9547 95.0057C67.0521 95.2344 67.1472 95.4632 67.2446 95.6919Z" fill="#43A714"/>
<path d="M129.83 120.113C126.797 124.414 123.278 127.465 119.43 130.191C118.384 130.934 117.643 130.783 117.421 129.546C116.755 125.839 115.99 122.138 116.107 118.335C116.137 117.418 116.386 116.838 117.462 117.271C121.305 118.824 125.357 119.595 129.83 120.113Z" fill="#43A714"/>
</svg>
